<svg width="37" height="37" viewBox="0 0 37 37" fill="none" xmlns="http://www.w3.org/2000/svg">
<path d="M7.08333 34.8333C6.23542 34.8333 5.50981 34.5317 4.9065 33.9284C4.30217 33.324 4 32.5979 4 31.75V7.08333C4 6.23542 4.30217 5.50929 4.9065 4.90496C5.50981 4.30165 6.23542 4 7.08333 4H19.4167L28.6667 13.25V19.4167H25.5833V14.7917H17.875V7.08333H7.08333V31.75H16.3333V34.8333H7.08333ZM26.0458 23.3094L27.7031 24.9667L21.7292 30.9021V32.5208H23.3479L29.3219 26.5854L30.9406 28.2042L24.3115 34.8333H19.4167V29.9385L26.0458 23.3094ZM30.9406 28.2042L26.0458 23.3094L28.2812 21.074C28.5639 20.7913 28.9236 20.65 29.3604 20.65C29.7972 20.65 30.1569 20.7913 30.4396 21.074L33.176 23.8104C33.4587 24.0931 33.6 24.4528 33.6 24.8896C33.6 25.3264 33.4587 25.6861 33.176 25.9688L30.9406 28.2042Z" fill="black"/>
</svg>
