<svg width="37" height="37" viewBox="0 0 37 37" fill="none" xmlns="http://www.w3.org/2000/svg">
<path d="M10.7916 20.0417H21.5833C22.0201 20.0417 22.3865 19.8937 22.6825 19.5977C22.9775 19.3027 23.125 18.9368 23.125 18.5C23.125 18.0632 22.9775 17.6968 22.6825 17.4008C22.3865 17.1058 22.0201 16.9583 21.5833 16.9583H10.7916C10.3548 16.9583 9.98844 17.1058 9.69244 17.4008C9.39747 17.6968 9.24998 18.0632 9.24998 18.5C9.24998 18.9368 9.39747 19.3027 9.69244 19.5977C9.98844 19.8937 10.3548 20.0417 10.7916 20.0417ZM10.7916 15.4167H21.5833C22.0201 15.4167 22.3865 15.2687 22.6825 14.9727C22.9775 14.6777 23.125 14.3118 23.125 13.875C23.125 13.4382 22.9775 13.0718 22.6825 12.7758C22.3865 12.4808 22.0201 12.3333 21.5833 12.3333H10.7916C10.3548 12.3333 9.98844 12.4808 9.69244 12.7758C9.39747 13.0718 9.24998 13.4382 9.24998 13.875C9.24998 14.3118 9.39747 14.6777 9.69244 14.9727C9.98844 15.2687 10.3548 15.4167 10.7916 15.4167ZM6.16665 30.8333C5.31873 30.8333 4.59312 30.5317 3.98981 29.9284C3.38548 29.324 3.08331 28.5979 3.08331 27.75V9.25C3.08331 8.40208 3.38548 7.67647 3.98981 7.07317C4.59312 6.46883 5.31873 6.16667 6.16665 6.16667H30.8333C31.6812 6.16667 32.4074 6.46883 33.0117 7.07317C33.615 7.67647 33.9166 8.40208 33.9166 9.25V27.75C33.9166 28.5979 33.615 29.324 33.0117 29.9284C32.4074 30.5317 31.6812 30.8333 30.8333 30.8333H6.16665ZM6.16665 27.75V9.25V27.75ZM6.16665 27.75H30.8333V9.25H6.16665V27.75Z" fill="black"/>
</svg>
