<svg width="18" height="18" viewBox="0 0 18 18" fill="none" xmlns="http://www.w3.org/2000/svg">
<path d="M15.5 7.5H10.5V2.5C10.5 2.10218 10.342 1.72064 10.0607 1.43934C9.77936 1.15804 9.39782 1 9 1C8.60218 1 8.22064 1.15804 7.93934 1.43934C7.65804 1.72064 7.5 2.10218 7.5 2.5V7.5H2.5C2.10218 7.5 1.72064 7.65804 1.43934 7.93934C1.15804 8.22064 1 8.60218 1 9C1 9.39782 1.15804 9.77936 1.43934 10.0607C1.72064 10.342 2.10218 10.5 2.5 10.5H7.5V15.5C7.5 15.8978 7.65804 16.2794 7.93934 16.5607C8.22064 16.842 8.60218 17 9 17C9.39782 17 9.77936 16.842 10.0607 16.5607C10.342 16.2794 10.5 15.8978 10.5 15.5V10.5H15.5C15.8978 10.5 16.2794 10.342 16.5607 10.0607C16.842 9.77936 17 9.39782 17 9C17 8.60218 16.842 8.22064 16.5607 7.93934C16.2794 7.65804 15.8978 7.5 15.5 7.5Z" fill="#31373D"/>
</svg>
