<svg width="37" height="37" viewBox="0 0 37 37" fill="none" xmlns="http://www.w3.org/2000/svg">
<path d="M29.1375 31.2958L20.5042 22.6625C19.7333 23.2792 18.8469 23.7674 17.8448 24.1271C16.8427 24.4868 15.7764 24.6667 14.6458 24.6667C11.8451 24.6667 9.47508 23.697 7.53567 21.7575C5.59522 19.8171 4.625 17.4465 4.625 14.6458C4.625 11.8451 5.59522 9.47457 7.53567 7.53413C9.47508 5.59471 11.8451 4.625 14.6458 4.625C17.4465 4.625 19.8171 5.59471 21.7575 7.53413C23.697 9.47457 24.6667 11.8451 24.6667 14.6458C24.6667 15.7764 24.4868 16.8427 24.1271 17.8448C23.7674 18.8469 23.2792 19.7333 22.6625 20.5042L31.3344 29.176C31.617 29.4587 31.7583 29.8056 31.7583 30.2167C31.7583 30.6278 31.6042 30.9875 31.2958 31.2958C31.0132 31.5785 30.6535 31.7198 30.2167 31.7198C29.7799 31.7198 29.4201 31.5785 29.1375 31.2958ZM14.6458 21.5833C16.5729 21.5833 18.2112 20.9091 19.5607 19.5607C20.9091 18.2112 21.5833 16.5729 21.5833 14.6458C21.5833 12.7188 20.9091 11.0805 19.5607 9.731C18.2112 8.38256 16.5729 7.70833 14.6458 7.70833C12.7187 7.70833 11.0805 8.38256 9.731 9.731C8.38256 11.0805 7.70833 12.7188 7.70833 14.6458C7.70833 16.5729 8.38256 18.2112 9.731 19.5607C11.0805 20.9091 12.7187 21.5833 14.6458 21.5833Z" fill="black"/>
</svg>
